<svg width="36" height="36" viewBox="0 0 36 36" fill="none" xmlns="http://www.w3.org/2000/svg">
<path d="M36 18C36 27.9405 27.9436 36 18.0069 36C8.07015 36 0 27.9542 0 18C0 8.04577 8.05642 0 17.9931 0C27.9299 0 35.9863 8.0595 35.9863 18H36ZM16.7716 2.6087C8.2623 3.21281 1.79794 10.9977 2.6626 19.4828C3.00572 22.7643 4.41937 25.9222 6.62905 28.3524C6.88982 27.6384 7.08197 26.9108 7.38391 26.2105C11.3778 16.984 24.6771 17.0114 28.6298 26.2654C28.918 26.9382 29.0965 27.6659 29.3572 28.3524C31.4159 26.0732 32.8159 23.1762 33.2413 20.1144C34.5864 10.2975 26.6397 1.9222 16.7854 2.6087H16.7716ZM17.3344 21.5698C13.1483 21.8856 9.64849 25.1396 9.0995 29.2998C9.05833 29.5606 8.96226 30.4119 9.0995 30.5767C9.27793 30.7826 10.7602 31.6201 11.1033 31.7849C15.4266 33.9542 20.5871 33.9542 24.9104 31.7849C25.1849 31.6476 26.8593 30.6865 26.9554 30.5355C27.0789 30.3295 26.8044 28.778 26.7358 28.4348C25.7888 24.1922 21.6714 21.254 17.3481 21.5698H17.3344Z" fill="black"/>
<path d="M24.8738 11.2392C24.8738 14.7952 21.9916 17.6785 18.4369 17.6785C14.8822 17.6785 12 14.7952 12 11.2392C12 7.6831 14.8822 4.7998 18.4369 4.7998C21.9916 4.7998 24.8738 7.6831 24.8738 11.2392ZM22.2798 11.2392C22.2798 9.12475 20.5642 7.4085 18.4506 7.4085C16.337 7.4085 14.6214 9.12475 14.6214 11.2392C14.6214 13.3536 16.337 15.0698 18.4506 15.0698C20.5642 15.0698 22.2798 13.3536 22.2798 11.2392Z" fill="black"/>
</svg>
