<svg width="32" height="32" viewBox="0 0 32 32" fill="none" xmlns="http://www.w3.org/2000/svg">
<path d="M9.33333 28C7.91885 28 6.56229 27.4381 5.5621 26.4379C4.5619 25.4377 4 24.0812 4 22.6667V6.66667C4 5.95942 4.28095 5.28115 4.78105 4.78105C5.28115 4.28095 5.95942 4 6.66667 4H12C12.7072 4 13.3855 4.28095 13.8856 4.78105C14.3857 5.28115 14.6667 5.95942 14.6667 6.66667V22.6667C14.6667 24.0812 14.1048 25.4377 13.1046 26.4379M9.33333 28C10.7478 28 12.1044 27.4381 13.1046 26.4379M9.33333 28H25.3333C26.0406 28 26.7189 27.719 27.219 27.219C27.719 26.7189 28 26.0406 28 25.3333V20C28 19.2928 27.719 18.6145 27.219 18.1144C26.7189 17.6143 26.0406 17.3333 25.3333 17.3333H22.2093M13.1046 26.4379L24.4187 15.124C24.9186 14.6239 25.1994 13.9458 25.1994 13.2387C25.1994 12.5316 24.9186 11.8534 24.4187 11.3533L20.6467 7.58133C20.1466 7.08141 19.4684 6.80057 18.7613 6.80057C18.0542 6.80057 17.3761 7.08141 16.876 7.58133L14.6667 9.79067M9.33333 22.6667H9.34667" stroke="white" stroke-width="2.66667" stroke-linecap="round" stroke-linejoin="round"/>
</svg>
