<svg width="33" height="33" viewBox="0 0 33 33" fill="none" xmlns="http://www.w3.org/2000/svg">
<path d="M17.875 13.75H24.0625L23.375 16.5H17.875V28.875H15.125V16.5H9.625V13.75H15.125V11.176C15.125 8.72437 15.3808 7.83475 15.8593 6.93825C16.3281 6.05248 17.0525 5.32814 17.9382 4.85925C18.8347 4.38075 19.7244 4.125 22.176 4.125C22.8938 4.125 23.5235 4.19375 24.0625 4.33125V6.875H22.176C20.3555 6.875 19.8014 6.98225 19.2362 7.28475C18.8182 7.5075 18.5075 7.81825 18.2847 8.23625C17.9823 8.80137 17.875 9.3555 17.875 11.176V13.75Z" fill="white"/>
</svg>
