<svg width="33" height="33" viewBox="0 0 33 33" fill="none" xmlns="http://www.w3.org/2000/svg">
<path d="M23.375 4.125H9.625C8.16631 4.125 6.76736 4.70446 5.73591 5.73591C4.70446 6.76736 4.125 8.16631 4.125 9.625V23.375C4.125 24.8337 4.70446 26.2326 5.73591 27.2641C6.76736 28.2955 8.16631 28.875 9.625 28.875H23.375C24.8337 28.875 26.2326 28.2955 27.2641 27.2641C28.2955 26.2326 28.875 24.8337 28.875 23.375V9.625C28.875 8.16631 28.2955 6.76736 27.2641 5.73591C26.2326 4.70446 24.8337 4.125 23.375 4.125Z" stroke="white" stroke-width="1.5" stroke-linejoin="round"/>
<path d="M16.5 22C17.9587 22 19.3576 21.4205 20.3891 20.3891C21.4205 19.3576 22 17.9587 22 16.5C22 15.0413 21.4205 13.6424 20.3891 12.6109C19.3576 11.5795 17.9587 11 16.5 11C15.0413 11 13.6424 11.5795 12.6109 12.6109C11.5795 13.6424 11 15.0413 11 16.5C11 17.9587 11.5795 19.3576 12.6109 20.3891C13.6424 21.4205 15.0413 22 16.5 22V22Z" stroke="white" stroke-width="1.5" stroke-linejoin="round"/>
<path d="M24.0625 10.3125C24.4272 10.3125 24.7769 10.1676 25.0348 9.90977C25.2926 9.65191 25.4375 9.30217 25.4375 8.9375C25.4375 8.57283 25.2926 8.22309 25.0348 7.96523C24.7769 7.70737 24.4272 7.5625 24.0625 7.5625C23.6978 7.5625 23.3481 7.70737 23.0902 7.96523C22.8324 8.22309 22.6875 8.57283 22.6875 8.9375C22.6875 9.30217 22.8324 9.65191 23.0902 9.90977C23.3481 10.1676 23.6978 10.3125 24.0625 10.3125Z" fill="white"/>
</svg>
