<svg width="33" height="33" viewBox="0 0 33 33" fill="none" xmlns="http://www.w3.org/2000/svg">
<path d="M15.8125 12.4438C17.0734 11.1554 18.7151 10.3125 20.625 10.3125C22.6307 10.3125 24.5543 11.1093 25.9725 12.5275C27.3907 13.9457 28.1875 15.8693 28.1875 17.875V28.1875H25.4375V17.875C25.4375 16.5986 24.9305 15.3746 24.028 14.472C23.1254 13.5695 21.9014 13.0625 20.625 13.0625C19.3486 13.0625 18.1246 13.5695 17.222 14.472C16.3195 15.3746 15.8125 16.5986 15.8125 17.875V28.1875H13.0625V11H15.8125V12.4438ZM6.1875 8.25C5.64049 8.25 5.11589 8.0327 4.72909 7.64591C4.3423 7.25911 4.125 6.73451 4.125 6.1875C4.125 5.64049 4.3423 5.11589 4.72909 4.72909C5.11589 4.3423 5.64049 4.125 6.1875 4.125C6.73451 4.125 7.25911 4.3423 7.64591 4.72909C8.0327 5.11589 8.25 5.64049 8.25 6.1875C8.25 6.73451 8.0327 7.25911 7.64591 7.64591C7.25911 8.0327 6.73451 8.25 6.1875 8.25ZM4.8125 11H7.5625V28.1875H4.8125V11Z" fill="white"/>
</svg>
