<svg width="31" height="37" viewBox="0 0 31 37" fill="none" xmlns="http://www.w3.org/2000/svg">
<path d="M24.0185 9.03711H26.9046C27.9796 9.03711 29.4193 10.7013 29.4454 11.7933L30.9633 32.9809C31.2239 35.0924 30.0838 36.8487 27.9079 37H2.97565C0.636825 36.6514 -0.0667766 35.2174 0.00488644 32.9809C0.226391 25.9227 1.26876 18.8514 1.52284 11.7933C1.52284 10.7079 3.01474 9.03711 4.06362 9.03711H7.03438C6.29821 1.65007 15.2952 -2.76374 20.8784 1.94608C22.9762 3.71555 24.0511 6.27437 24.0185 9.03711ZM21.2563 9.03711C21.4778 4.99825 18.0054 2.02501 14.0769 2.92619C11.3667 3.5511 9.49699 6.24806 9.71198 9.03711H21.2563ZM7.03438 11.7407H4.56527C4.32422 11.7407 4.20695 12.1748 4.18741 12.3721C3.47077 19.4369 3.41214 26.5937 2.67597 33.6584C2.63688 33.7834 2.79975 34.2044 2.89095 34.2044H28.0708C28.1945 34.2044 28.2857 33.7834 28.2857 33.6584C28.2857 32.4217 28.0317 30.9483 27.947 29.6853C27.5561 23.9691 27.3476 18.0489 26.7743 12.3721C26.7548 12.1682 26.6375 11.7407 26.3965 11.7407H24.012V18.6278C24.012 18.6278 23.8882 19.0027 23.8622 19.0685C23.4387 20.0289 22.1162 20.1539 21.5168 19.2921C21.4582 19.2066 21.2497 18.8646 21.2497 18.7988V11.7472H9.70546V18.7988C9.70546 18.8514 9.52956 19.1606 9.47744 19.2395C8.72824 20.4104 6.96924 19.8118 6.94318 18.4567C6.94318 18.2528 7.03438 18.0752 7.03438 17.8713C7.04741 15.8321 7.02136 13.7864 7.03438 11.7472V11.7407Z" fill="#09080B"/>
</svg>
