<svg width="24" height="24" viewBox="0 0 24 24" fill="none" xmlns="http://www.w3.org/2000/svg">
<path d="M11.0174 2.81346C11.0603 2.58407 11.182 2.37688 11.3615 2.22778C11.5411 2.07869 11.7671 1.99707 12.0004 1.99707C12.2338 1.99707 12.4598 2.07869 12.6393 2.22778C12.8189 2.37688 12.9406 2.58407 12.9834 2.81346L14.0344 8.37146C14.1091 8.76661 14.3011 9.13008 14.5855 9.41444C14.8698 9.69879 15.2333 9.89082 15.6284 9.96546L21.1864 11.0165C21.4158 11.0593 21.623 11.181 21.7721 11.3606C21.9212 11.5401 22.0028 11.7661 22.0028 11.9995C22.0028 12.2328 21.9212 12.4588 21.7721 12.6384C21.623 12.8179 21.4158 12.9396 21.1864 12.9825L15.6284 14.0335C15.2333 14.1081 14.8698 14.3001 14.5855 14.5845C14.3011 14.8688 14.1091 15.2323 14.0344 15.6275L12.9834 21.1855C12.9406 21.4149 12.8189 21.622 12.6393 21.7711C12.4598 21.9202 12.2338 22.0019 12.0004 22.0019C11.7671 22.0019 11.5411 21.9202 11.3615 21.7711C11.182 21.622 11.0603 21.4149 11.0174 21.1855L9.96644 15.6275C9.8918 15.2323 9.69977 14.8688 9.41541 14.5845C9.13106 14.3001 8.76759 14.1081 8.37244 14.0335L2.81444 12.9825C2.58504 12.9396 2.37786 12.8179 2.22876 12.6384C2.07966 12.4588 1.99805 12.2328 1.99805 11.9995C1.99805 11.7661 2.07966 11.5401 2.22876 11.3606C2.37786 11.181 2.58504 11.0593 2.81444 11.0165L8.37244 9.96546C8.76759 9.89082 9.13106 9.69879 9.41541 9.41444C9.69977 9.13008 9.8918 8.76661 9.96644 8.37146L11.0174 2.81346Z" stroke="black" stroke-width="1.33333" stroke-linecap="round" stroke-linejoin="round"/>
<path d="M20 2V6" stroke="black" stroke-width="1.33333" stroke-linecap="round" stroke-linejoin="round"/>
<path d="M22 4H18" stroke="black" stroke-width="1.33333" stroke-linecap="round" stroke-linejoin="round"/>
<path d="M4 22C5.10457 22 6 21.1046 6 20C6 18.8954 5.10457 18 4 18C2.89543 18 2 18.8954 2 20C2 21.1046 2.89543 22 4 22Z" stroke="black" stroke-width="1.33333" stroke-linecap="round" stroke-linejoin="round"/>
</svg>
