<svg width="33" height="33" viewBox="0 0 33 33" fill="none" xmlns="http://www.w3.org/2000/svg">
<g clip-path="url(#clip0_2127_611)">
<path d="M19.4023 6.0752C20.6149 5.59004 21.9441 5.47285 23.2227 5.73926C24.5009 6.00567 25.6721 6.64348 26.5898 7.57227L26.6201 7.60254H26.6621C27.1343 7.59923 27.6088 7.6592 28.1797 7.57812C28.7178 7.50163 29.347 7.29862 30.1875 6.81348C29.7561 8.91367 29.517 9.85346 28.5811 11.1367L28.5615 11.1631V11.1953C28.5615 16.4273 26.9549 20.3079 24.5391 23.042C22.1221 25.7773 18.8897 27.3722 15.6309 28.0225C13.401 28.4673 10.6578 28.3249 8.2373 27.8262C7.02794 27.577 5.90175 27.2397 4.96289 26.8438C4.12089 26.4887 3.43607 26.0881 2.97559 25.668C3.54949 25.6147 4.62621 25.4872 5.82617 25.208C7.19922 24.8885 8.74491 24.371 9.88184 23.5391L9.99805 23.4531L9.87793 23.374C8.92766 22.7477 6.58789 21.3375 5.09766 18.6035C3.62307 15.8982 2.97267 11.8802 5.37012 6.01465C7.67023 8.6734 10.0078 10.4951 12.3828 11.4697C13.1812 11.7972 13.6821 11.9593 14.0771 12.0518C14.4711 12.1439 14.7605 12.1664 15.1201 12.2158L15.4141 12.2568L15.2324 12.0742C15.2642 10.7837 15.6716 9.52975 16.4053 8.4668C17.1471 7.39207 18.1899 6.56036 19.4023 6.0752ZM21.8691 8.15137C20.798 8.15125 19.7693 8.57185 19.0049 9.32227C18.2405 10.0727 17.8018 11.094 17.7822 12.165L17.7432 14.3301C17.7412 14.4322 17.7174 14.5326 17.6738 14.625C17.6302 14.7174 17.5678 14.7997 17.4902 14.8662C17.4126 14.9327 17.3216 14.9827 17.2236 15.0117C17.1258 15.0406 17.023 15.0478 16.9219 15.0342L14.7754 14.7432C11.9737 14.3612 9.28484 13.0703 6.7002 10.917L6.56738 10.8066L6.53711 10.9756C6.12315 13.2669 6.31938 15.2155 7.1123 16.8994C7.90494 18.5825 9.28959 19.9918 11.2344 21.2148L13.6367 22.7246C13.7368 22.7876 13.8199 22.8741 13.8789 22.9766C13.938 23.0792 13.9715 23.1951 13.9756 23.3135C13.9796 23.4319 13.9542 23.5498 13.9023 23.6562C13.8505 23.7625 13.7732 23.8542 13.6777 23.9238V23.9248L11.4883 25.5234L11.2646 25.6865L11.541 25.7041C12.8493 25.7856 14.0945 25.7281 15.1309 25.5225C18.3945 24.8708 21.1166 23.3151 23.0225 20.9053C24.9281 18.4957 26.0117 15.2393 26.0117 11.1953C26.0116 11.0049 25.9145 10.7202 25.7402 10.4092C25.5636 10.094 25.3007 9.73892 24.9541 9.40527C24.2602 8.73735 23.2255 8.15137 21.8691 8.15137Z" fill="white" stroke="#2E4057" stroke-width="0.2"/>
</g>
<defs>
<clipPath id="clip0_2127_611">
<rect width="33" height="33" fill="white"/>
</clipPath>
</defs>
</svg>
